<svg width="393" height="852" viewBox="0 0 393 852" fill="none" xmlns="http://www.w3.org/2000/svg">
<path d="M143.076 442V417.455H149.676V421.737H149.932C150.379 420.214 151.13 419.063 152.185 418.286C153.24 417.497 154.454 417.103 155.829 417.103C156.17 417.103 156.537 417.124 156.931 417.167C157.325 417.21 157.672 417.268 157.97 417.343V423.383C157.65 423.287 157.208 423.202 156.644 423.127C156.079 423.053 155.562 423.016 155.094 423.016C154.092 423.016 153.197 423.234 152.409 423.671C151.631 424.097 151.013 424.694 150.555 425.461C150.108 426.228 149.884 427.112 149.884 428.113V442H143.076ZM171.533 442.479C169.008 442.479 166.835 441.968 165.013 440.945C163.202 439.912 161.807 438.452 160.826 436.567C159.846 434.67 159.356 432.428 159.356 429.839C159.356 427.314 159.846 425.098 160.826 423.191C161.807 421.284 163.186 419.798 164.965 418.733C166.755 417.668 168.854 417.135 171.261 417.135C172.881 417.135 174.388 417.396 175.784 417.918C177.19 418.429 178.415 419.202 179.459 420.235C180.514 421.268 181.334 422.568 181.92 424.134C182.506 425.69 182.799 427.511 182.799 429.599V431.469H162.073V427.25H176.391C176.391 426.27 176.178 425.402 175.752 424.646C175.326 423.889 174.734 423.298 173.978 422.872C173.232 422.435 172.364 422.217 171.373 422.217C170.34 422.217 169.424 422.456 168.625 422.936C167.836 423.404 167.218 424.038 166.771 424.837C166.324 425.626 166.095 426.505 166.084 427.474V431.485C166.084 432.7 166.308 433.749 166.755 434.633C167.213 435.517 167.858 436.199 168.689 436.679C169.52 437.158 170.505 437.398 171.645 437.398C172.401 437.398 173.094 437.291 173.722 437.078C174.351 436.865 174.889 436.545 175.336 436.119C175.784 435.693 176.125 435.171 176.359 434.553L182.655 434.969C182.336 436.482 181.68 437.803 180.69 438.932C179.71 440.05 178.442 440.924 176.886 441.553C175.342 442.17 173.557 442.479 171.533 442.479ZM196.286 442.4C194.422 442.4 192.733 441.92 191.221 440.961C189.718 439.992 188.525 438.57 187.641 436.695C186.767 434.809 186.331 432.497 186.331 429.759C186.331 426.947 186.783 424.608 187.689 422.744C188.595 420.869 189.798 419.468 191.3 418.541C192.813 417.604 194.47 417.135 196.27 417.135C197.645 417.135 198.79 417.369 199.706 417.838C200.633 418.296 201.379 418.871 201.943 419.564C202.519 420.246 202.955 420.917 203.254 421.577H203.461V409.273H210.253V442H203.541V438.069H203.254C202.934 438.751 202.481 439.427 201.895 440.098C201.32 440.759 200.569 441.308 199.642 441.744C198.726 442.181 197.607 442.4 196.286 442.4ZM198.444 436.982C199.541 436.982 200.468 436.684 201.224 436.087C201.991 435.48 202.577 434.633 202.982 433.547C203.397 432.46 203.605 431.187 203.605 429.727C203.605 428.268 203.403 427 202.998 425.924C202.593 424.848 202.007 424.017 201.24 423.431C200.473 422.845 199.541 422.552 198.444 422.552C197.325 422.552 196.382 422.856 195.615 423.463C194.848 424.07 194.267 424.912 193.873 425.988C193.479 427.064 193.282 428.31 193.282 429.727C193.282 431.155 193.479 432.417 193.873 433.515C194.278 434.601 194.859 435.453 195.615 436.071C196.382 436.679 197.325 436.982 198.444 436.982ZM222.849 442.463C221.283 442.463 219.888 442.192 218.662 441.648C217.437 441.094 216.468 440.279 215.754 439.203C215.051 438.117 214.699 436.764 214.699 435.145C214.699 433.781 214.95 432.636 215.45 431.709C215.951 430.782 216.633 430.036 217.496 429.472C218.359 428.907 219.339 428.481 220.436 428.193C221.544 427.906 222.705 427.703 223.92 427.586C225.347 427.437 226.498 427.298 227.372 427.17C228.245 427.032 228.879 426.83 229.273 426.563C229.667 426.297 229.864 425.903 229.864 425.381V425.285C229.864 424.273 229.545 423.49 228.906 422.936C228.277 422.382 227.382 422.105 226.221 422.105C224.996 422.105 224.021 422.376 223.297 422.92C222.572 423.452 222.093 424.124 221.858 424.933L215.562 424.422C215.882 422.93 216.51 421.641 217.448 420.555C218.385 419.457 219.595 418.616 221.075 418.03C222.567 417.433 224.293 417.135 226.253 417.135C227.617 417.135 228.922 417.295 230.168 417.614C231.425 417.934 232.538 418.429 233.508 419.1C234.488 419.772 235.26 420.635 235.825 421.689C236.39 422.733 236.672 423.985 236.672 425.445V442H230.216V438.596H230.024C229.63 439.363 229.103 440.04 228.442 440.626C227.782 441.201 226.988 441.654 226.061 441.984C225.134 442.304 224.064 442.463 222.849 442.463ZM224.799 437.765C225.8 437.765 226.684 437.568 227.451 437.174C228.219 436.769 228.82 436.226 229.257 435.544C229.694 434.862 229.912 434.09 229.912 433.227V430.622C229.699 430.761 229.406 430.888 229.034 431.006C228.671 431.112 228.261 431.213 227.803 431.309C227.345 431.395 226.887 431.474 226.429 431.549C225.971 431.613 225.555 431.672 225.182 431.725C224.383 431.842 223.686 432.028 223.089 432.284C222.492 432.54 222.029 432.886 221.699 433.323C221.368 433.749 221.203 434.282 221.203 434.921C221.203 435.848 221.539 436.556 222.21 437.046C222.892 437.526 223.755 437.765 224.799 437.765ZM245.932 442.415C244.878 442.415 243.972 442.043 243.216 441.297C242.47 440.54 242.097 439.635 242.097 438.58C242.097 437.536 242.47 436.641 243.216 435.896C243.972 435.15 244.878 434.777 245.932 434.777C246.955 434.777 247.85 435.15 248.617 435.896C249.384 436.641 249.768 437.536 249.768 438.58C249.768 439.283 249.587 439.928 249.224 440.514C248.873 441.089 248.409 441.553 247.834 441.904C247.259 442.245 246.625 442.415 245.932 442.415Z" fill="white"/>
</svg>
