<svg width="393" height="852" viewBox="0 0 393 852" fill="none" xmlns="http://www.w3.org/2000/svg">
<g clip-path="url(#clip0_1_11)">
<g clip-path="url(#clip1_1_11)">
<rect width="1194" height="1194" transform="translate(-386 -275)" fill="black" fill-opacity="0.05"/>
<g clip-path="url(#clip2_1_11)">
<rect width="1192" height="1214.89" transform="translate(-384 -275)" fill="#252525" fill-opacity="0.1"/>
<path d="M-641.489 928.323C619.022 940.962 -156.234 1587.93 1175.44 1705.79C2507.11 1823.65 1962.65 1802.45 1027.79 1897.12C92.9201 1991.79 306.961 1013.78 -789.138 1119.65C-1885.24 1225.52 -1902 915.683 -641.489 928.323Z" fill="white" fill-opacity="0.02"/>
<path d="M-730.59 -565.186C574.562 -558.223 -230.236 122.141 1148.26 238.781C2526.76 355.421 1963.08 335.95 994.771 439.58C26.4633 543.209 251.208 -480.536 -884.082 -364.388C-2019.37 -248.24 -2035.74 -572.15 -730.59 -565.186Z" fill="white" fill-opacity="0.02"/>
<path d="M-723.971 199.115C507.472 202.611 -252.923 849.814 1047.56 957.158C2348.04 1064.5 1816.21 1047.38 902.426 1147.97C-11.3626 1248.56 202.258 277.063 -869.104 389.926C-1940.47 502.79 -1955.41 195.618 -723.971 199.115Z" fill="white" fill-opacity="0.02"/>
<path d="M-726.329 1655.39C608.703 1695.56 -203.261 2334.91 1208.59 2483.35C2620.45 2631.78 2043.59 2598.46 1054.9 2674.19C66.2174 2749.93 279.252 1762.64 -880.019 1846.24C-2039.29 1929.83 -2061.36 1615.22 -726.329 1655.39Z" fill="white" fill-opacity="0.02"/>
</g>
</g>
<path d="M150.539 439V419.68H155.779V439H150.539ZM155.779 428.32L153.739 426.96C153.979 424.587 154.672 422.72 155.819 421.36C156.965 419.973 158.619 419.28 160.779 419.28C161.712 419.28 162.552 419.44 163.299 419.76C164.045 420.053 164.725 420.547 165.339 421.24L162.059 425C161.765 424.68 161.405 424.44 160.979 424.28C160.579 424.12 160.112 424.04 159.579 424.04C158.459 424.04 157.539 424.4 156.819 425.12C156.125 425.813 155.779 426.88 155.779 428.32ZM175.873 439.4C173.846 439.4 172.046 438.973 170.473 438.12C168.899 437.24 167.646 436.04 166.713 434.52C165.806 433 165.353 431.267 165.353 429.32C165.353 427.4 165.793 425.693 166.673 424.2C167.579 422.68 168.806 421.48 170.353 420.6C171.899 419.693 173.619 419.24 175.513 419.24C177.379 419.24 179.019 419.667 180.433 420.52C181.873 421.347 182.993 422.493 183.793 423.96C184.619 425.4 185.033 427.04 185.033 428.88C185.033 429.227 185.006 429.587 184.953 429.96C184.926 430.307 184.859 430.707 184.753 431.16L168.513 431.2V427.28L182.313 427.24L180.193 428.88C180.139 427.733 179.926 426.773 179.553 426C179.206 425.227 178.686 424.64 177.993 424.24C177.326 423.813 176.499 423.6 175.513 423.6C174.473 423.6 173.566 423.84 172.793 424.32C172.019 424.773 171.419 425.427 170.993 426.28C170.593 427.107 170.393 428.093 170.393 429.24C170.393 430.413 170.606 431.44 171.033 432.32C171.486 433.173 172.126 433.84 172.953 434.32C173.779 434.773 174.739 435 175.833 435C176.819 435 177.713 434.84 178.513 434.52C179.313 434.173 180.006 433.667 180.593 433L183.673 436.08C182.739 437.173 181.593 438 180.233 438.56C178.899 439.12 177.446 439.4 175.873 439.4ZM196.433 439.4C194.646 439.4 193.046 438.96 191.633 438.08C190.22 437.2 189.1 436 188.273 434.48C187.473 432.96 187.073 431.253 187.073 429.36C187.073 427.44 187.473 425.72 188.273 424.2C189.1 422.68 190.206 421.48 191.593 420.6C193.006 419.72 194.62 419.28 196.433 419.28C197.82 419.28 199.06 419.56 200.153 420.12C201.273 420.68 202.166 421.467 202.833 422.48C203.526 423.467 203.9 424.587 203.953 425.84V432.72C203.9 433.973 203.54 435.107 202.873 436.12C202.206 437.133 201.313 437.933 200.193 438.52C199.073 439.107 197.82 439.4 196.433 439.4ZM197.313 434.56C198.3 434.56 199.153 434.347 199.873 433.92C200.62 433.467 201.193 432.853 201.593 432.08C202.02 431.28 202.233 430.36 202.233 429.32C202.233 428.307 202.02 427.413 201.593 426.64C201.193 425.84 200.62 425.227 199.873 424.8C199.153 424.347 198.313 424.12 197.353 424.12C196.366 424.12 195.5 424.347 194.753 424.8C194.033 425.253 193.46 425.867 193.033 426.64C192.633 427.413 192.433 428.307 192.433 429.32C192.433 430.36 192.633 431.28 193.033 432.08C193.46 432.853 194.046 433.467 194.793 433.92C195.54 434.347 196.38 434.56 197.313 434.56ZM207.153 439H201.953V433.8L202.793 429.08L201.913 424.44V410.08H207.153V439ZM219.869 439.4C218.109 439.4 216.522 438.96 215.109 438.08C213.695 437.2 212.589 436 211.789 434.48C210.989 432.96 210.589 431.253 210.589 429.36C210.589 427.44 210.989 425.72 211.789 424.2C212.589 422.68 213.695 421.48 215.109 420.6C216.522 419.72 218.109 419.28 219.869 419.28C221.255 419.28 222.495 419.56 223.589 420.12C224.682 420.68 225.549 421.467 226.189 422.48C226.855 423.467 227.215 424.587 227.269 425.84V432.8C227.215 434.08 226.855 435.213 226.189 436.2C225.549 437.187 224.682 437.973 223.589 438.56C222.495 439.12 221.255 439.4 219.869 439.4ZM220.829 434.56C222.295 434.56 223.482 434.08 224.389 433.12C225.295 432.133 225.749 430.867 225.749 429.32C225.749 428.307 225.535 427.413 225.109 426.64C224.709 425.84 224.135 425.227 223.389 424.8C222.669 424.347 221.815 424.12 220.829 424.12C219.869 424.12 219.015 424.347 218.269 424.8C217.549 425.227 216.975 425.84 216.549 426.64C216.149 427.413 215.949 428.307 215.949 429.32C215.949 430.36 216.149 431.28 216.549 432.08C216.975 432.853 217.549 433.467 218.269 433.92C219.015 434.347 219.869 434.56 220.829 434.56ZM225.469 439V433.8L226.309 429.08L225.469 424.44V419.68H230.669V439H225.469ZM238.904 439.4C237.944 439.4 237.158 439.08 236.544 438.44C235.931 437.8 235.624 437.013 235.624 436.08C235.624 435.147 235.931 434.36 236.544 433.72C237.158 433.08 237.944 432.76 238.904 432.76C239.838 432.76 240.611 433.08 241.224 433.72C241.838 434.36 242.144 435.147 242.144 436.08C242.144 437.013 241.838 437.8 241.224 438.44C240.611 439.08 239.838 439.4 238.904 439.4Z" fill="white"/>
</g>
<defs>
<clipPath id="clip0_1_11">
<rect width="393" height="852" fill="white"/>
</clipPath>
<clipPath id="clip1_1_11">
<rect width="1194" height="1194" fill="white" transform="translate(-386 -275)"/>
</clipPath>
<clipPath id="clip2_1_11">
<rect width="1192" height="1214.89" fill="white" transform="translate(-384 -275)"/>
</clipPath>
</defs>
</svg>
