<svg width="393" height="852" viewBox="0 0 393 852" fill="none" xmlns="http://www.w3.org/2000/svg">
<g clip-path="url(#clip0_1_11)">
<g clip-path="url(#clip1_1_11)">
<rect width="1194" height="1194" transform="translate(-386 -275)" fill="black" fill-opacity="0.05"/>
<g clip-path="url(#clip2_1_11)">
<rect width="1192" height="1214.89" transform="translate(-384 -275)" fill="#252525" fill-opacity="0.1"/>
<path d="M-641.489 928.323C619.022 940.962 -156.234 1587.93 1175.44 1705.79C2507.11 1823.65 1962.65 1802.45 1027.79 1897.12C92.9201 1991.79 306.961 1013.78 -789.138 1119.65C-1885.24 1225.52 -1902 915.683 -641.489 928.323Z" fill="white" fill-opacity="0.02"/>
<path d="M-730.59 -565.186C574.562 -558.223 -230.236 122.141 1148.26 238.781C2526.76 355.421 1963.08 335.95 994.771 439.58C26.4633 543.209 251.208 -480.536 -884.082 -364.388C-2019.37 -248.24 -2035.74 -572.15 -730.59 -565.186Z" fill="white" fill-opacity="0.02"/>
<path d="M-723.971 199.115C507.472 202.611 -252.923 849.814 1047.56 957.158C2348.04 1064.5 1816.21 1047.38 902.426 1147.97C-11.3626 1248.56 202.258 277.063 -869.104 389.926C-1940.47 502.79 -1955.41 195.618 -723.971 199.115Z" fill="white" fill-opacity="0.02"/>
<path d="M-726.329 1655.39C608.703 1695.56 -203.261 2334.91 1208.59 2483.35C2620.45 2631.78 2043.59 2598.46 1054.9 2674.19C66.2174 2749.93 279.252 1762.64 -880.019 1846.24C-2039.29 1929.83 -2061.36 1615.22 -726.329 1655.39Z" fill="white" fill-opacity="0.02"/>
</g>
</g>
<path d="M148.512 438V416.182H154.379V419.989H154.606C155.004 418.634 155.672 417.612 156.609 416.92C157.547 416.22 158.626 415.869 159.848 415.869C160.151 415.869 160.477 415.888 160.828 415.926C161.178 415.964 161.486 416.016 161.751 416.082V421.452C161.467 421.366 161.074 421.291 160.572 421.224C160.07 421.158 159.611 421.125 159.194 421.125C158.304 421.125 157.509 421.319 156.808 421.707C156.117 422.086 155.567 422.616 155.16 423.298C154.762 423.98 154.564 424.766 154.564 425.656V438H148.512ZM173.807 438.426C171.563 438.426 169.631 437.972 168.012 437.062C166.402 436.144 165.161 434.847 164.29 433.17C163.419 431.485 162.983 429.491 162.983 427.19C162.983 424.946 163.419 422.976 164.29 421.281C165.161 419.586 166.388 418.265 167.969 417.318C169.56 416.371 171.426 415.898 173.566 415.898C175.005 415.898 176.345 416.13 177.586 416.594C178.836 417.048 179.925 417.735 180.853 418.653C181.79 419.572 182.519 420.727 183.04 422.119C183.561 423.502 183.821 425.121 183.821 426.977V428.639H165.398V424.889H178.125C178.125 424.018 177.936 423.246 177.557 422.574C177.178 421.902 176.653 421.376 175.98 420.997C175.318 420.609 174.546 420.415 173.665 420.415C172.747 420.415 171.932 420.628 171.222 421.054C170.521 421.471 169.972 422.034 169.574 422.744C169.176 423.445 168.973 424.226 168.963 425.088V428.653C168.963 429.733 169.162 430.666 169.56 431.452C169.967 432.238 170.54 432.844 171.279 433.27C172.017 433.696 172.893 433.909 173.907 433.909C174.579 433.909 175.194 433.814 175.753 433.625C176.312 433.436 176.79 433.152 177.188 432.773C177.586 432.394 177.889 431.93 178.097 431.381L183.694 431.75C183.409 433.095 182.827 434.269 181.946 435.273C181.075 436.267 179.948 437.044 178.566 437.602C177.193 438.152 175.606 438.426 173.807 438.426ZM195.81 438.355C194.153 438.355 192.652 437.929 191.307 437.077C189.972 436.215 188.911 434.951 188.125 433.284C187.349 431.608 186.961 429.553 186.961 427.119C186.961 424.619 187.363 422.541 188.168 420.884C188.973 419.217 190.043 417.972 191.378 417.148C192.723 416.314 194.195 415.898 195.796 415.898C197.017 415.898 198.035 416.106 198.85 416.523C199.674 416.93 200.337 417.441 200.838 418.057C201.35 418.663 201.738 419.259 202.003 419.847H202.188V408.909H208.225V438H202.259V434.506H202.003C201.719 435.112 201.317 435.713 200.796 436.31C200.284 436.897 199.617 437.384 198.793 437.773C197.979 438.161 196.984 438.355 195.81 438.355ZM197.728 433.54C198.703 433.54 199.527 433.275 200.199 432.744C200.881 432.205 201.402 431.452 201.762 430.486C202.131 429.52 202.316 428.388 202.316 427.091C202.316 425.794 202.136 424.667 201.776 423.71C201.416 422.754 200.895 422.015 200.213 421.494C199.532 420.973 198.703 420.713 197.728 420.713C196.733 420.713 195.895 420.983 195.213 421.523C194.532 422.062 194.016 422.811 193.665 423.767C193.315 424.723 193.14 425.831 193.14 427.091C193.14 428.36 193.315 429.482 193.665 430.457C194.025 431.423 194.541 432.181 195.213 432.73C195.895 433.27 196.733 433.54 197.728 433.54ZM219.422 438.412C218.029 438.412 216.789 438.17 215.7 437.688C214.611 437.195 213.749 436.471 213.115 435.514C212.49 434.548 212.177 433.346 212.177 431.906C212.177 430.694 212.4 429.676 212.845 428.852C213.29 428.028 213.896 427.366 214.663 426.864C215.43 426.362 216.301 425.983 217.277 425.727C218.261 425.472 219.294 425.292 220.373 425.188C221.642 425.055 222.665 424.932 223.441 424.818C224.218 424.695 224.781 424.515 225.132 424.278C225.482 424.042 225.657 423.691 225.657 423.227V423.142C225.657 422.242 225.373 421.546 224.805 421.054C224.246 420.562 223.451 420.315 222.419 420.315C221.33 420.315 220.463 420.557 219.819 421.04C219.175 421.513 218.749 422.11 218.541 422.83L212.944 422.375C213.228 421.049 213.787 419.903 214.62 418.938C215.454 417.962 216.529 417.214 217.845 416.693C219.171 416.163 220.705 415.898 222.447 415.898C223.659 415.898 224.819 416.04 225.927 416.324C227.045 416.608 228.034 417.048 228.896 417.645C229.767 418.241 230.454 419.009 230.956 419.946C231.458 420.874 231.708 421.987 231.708 423.284V438H225.97V434.974H225.799C225.449 435.656 224.98 436.258 224.393 436.778C223.806 437.29 223.1 437.692 222.277 437.986C221.453 438.27 220.501 438.412 219.422 438.412ZM221.154 434.236C222.045 434.236 222.831 434.061 223.512 433.71C224.194 433.35 224.729 432.867 225.118 432.261C225.506 431.655 225.7 430.969 225.7 430.202V427.886C225.511 428.009 225.25 428.123 224.919 428.227C224.597 428.322 224.232 428.412 223.825 428.497C223.418 428.573 223.011 428.644 222.603 428.71C222.196 428.767 221.827 428.819 221.495 428.866C220.785 428.971 220.165 429.136 219.635 429.364C219.104 429.591 218.692 429.899 218.399 430.287C218.105 430.666 217.958 431.139 217.958 431.707C217.958 432.531 218.257 433.161 218.853 433.597C219.459 434.023 220.226 434.236 221.154 434.236ZM239.94 438.369C239.002 438.369 238.198 438.038 237.525 437.375C236.862 436.703 236.531 435.898 236.531 434.96C236.531 434.032 236.862 433.237 237.525 432.574C238.198 431.911 239.002 431.58 239.94 431.58C240.849 431.58 241.645 431.911 242.326 432.574C243.008 433.237 243.349 434.032 243.349 434.96C243.349 435.585 243.188 436.158 242.866 436.679C242.554 437.19 242.142 437.602 241.63 437.915C241.119 438.218 240.556 438.369 239.94 438.369Z" fill="white"/>
</g>
<defs>
<clipPath id="clip0_1_11">
<rect width="393" height="852" fill="white"/>
</clipPath>
<clipPath id="clip1_1_11">
<rect width="1194" height="1194" fill="white" transform="translate(-386 -275)"/>
</clipPath>
<clipPath id="clip2_1_11">
<rect width="1192" height="1214.89" fill="white" transform="translate(-384 -275)"/>
</clipPath>
</defs>
</svg>
